<mxfile host="65bd71144e">
    <diagram name="Library Management System Use Case Diagram" id="library-use-case-diagram">
        <mxGraphModel dx="847" dy="469" grid="1" gridSize="10" guides="1" tooltips="1" connect="1" arrows="1" fold="1" page="1" pageScale="1" pageWidth="1600" pageHeight="1200" math="0" shadow="0">
            <root>
                <mxCell id="0"/>
                <mxCell id="1" parent="0"/>
                <mxCell id="system-boundary" value="Library Management System" style="rounded=0;whiteSpace=wrap;html=1;fillColor=none;strokeColor=#000000;strokeWidth=3;fontSize=20;fontStyle=1;align=center;verticalAlign=top;" parent="1" vertex="1">
                    <mxGeometry x="400" y="150" width="1000" height="800" as="geometry"/>
                </mxCell>
                <mxCell id="title" value="Library Management System - Use Case Diagram" style="text;html=1;strokeColor=none;fillColor=none;align=center;verticalAlign=middle;whiteSpace=wrap;rounded=0;fontSize=26;fontStyle=1;fontColor=#1f4e79;" parent="1" vertex="1">
                    <mxGeometry x="550" y="50" width="700" height="60" as="geometry"/>
                </mxCell>
                <mxCell id="subtitle" value="Enhanced Layout with Proper Spacing and Clear Relationship Descriptions" style="text;html=1;strokeColor=none;fillColor=none;align=center;verticalAlign=middle;whiteSpace=wrap;rounded=0;fontSize=16;fontStyle=2;fontColor=#4472c4;" parent="1" vertex="1">
                    <mxGeometry x="550" y="105" width="700" height="30" as="geometry"/>
                </mxCell>
                <mxCell id="member-actor" value="Library&#xa;Member" style="shape=umlActor;verticalLabelPosition=bottom;verticalAlign=top;html=1;outlineConnect=0;fillColor=#d5e8d4;strokeColor=#82b366;fontSize=14;fontStyle=1;" parent="1" vertex="1">
                    <mxGeometry x="220" y="250" width="50" height="100" as="geometry"/>
                </mxCell>
                <mxCell id="librarian-actor" value="Librarian" style="shape=umlActor;verticalLabelPosition=bottom;verticalAlign=top;html=1;outlineConnect=0;fillColor=#dae8fc;strokeColor=#6c8ebf;fontSize=14;fontStyle=1;" parent="1" vertex="1">
                    <mxGeometry x="220" y="500" width="50" height="100" as="geometry"/>
                </mxCell>
                <mxCell id="admin-actor" value="System&#xa;Administrator" style="shape=umlActor;verticalLabelPosition=bottom;verticalAlign=top;html=1;outlineConnect=0;fillColor=#f8cecc;strokeColor=#b85450;fontSize=14;fontStyle=1;" parent="1" vertex="1">
                    <mxGeometry x="220" y="750" width="50" height="100" as="geometry"/>
                </mxCell>
                <mxCell id="database-actor" value="Database&#xa;System" style="shape=umlActor;verticalLabelPosition=bottom;verticalAlign=top;html=1;outlineConnect=0;fillColor=#e1d5e7;strokeColor=#9673a6;fontSize=14;fontStyle=1;" parent="1" vertex="1">
                    <mxGeometry x="1500" y="350" width="50" height="100" as="geometry"/>
                </mxCell>
                <mxCell id="email-actor" value="Email&#xa;System" style="shape=umlActor;verticalLabelPosition=bottom;verticalAlign=top;html=1;outlineConnect=0;fillColor=#fff2cc;strokeColor=#d6b656;fontSize=14;fontStyle=1;" parent="1" vertex="1">
                    <mxGeometry x="1500" y="600" width="50" height="100" as="geometry"/>
                </mxCell>
                <mxCell id="search-books" value="Search Books" style="ellipse;whiteSpace=wrap;html=1;fillColor=#d5e8d4;strokeColor=#82b366;fontSize=12;fontStyle=1;" parent="1" vertex="1">
                    <mxGeometry x="450" y="200" width="150" height="80" as="geometry"/>
                </mxCell>
                <mxCell id="browse-catalog" value="Browse&#xa;Book Catalog" style="ellipse;whiteSpace=wrap;html=1;fillColor=#d5e8d4;strokeColor=#82b366;fontSize=12;fontStyle=1;" parent="1" vertex="1">
                    <mxGeometry x="650" y="200" width="150" height="80" as="geometry"/>
                </mxCell>
                <mxCell id="view-book-details" value="View Book&#xa;Details" style="ellipse;whiteSpace=wrap;html=1;fillColor=#d5e8d4;strokeColor=#82b366;fontSize=12;fontStyle=1;" parent="1" vertex="1">
                    <mxGeometry x="850" y="200" width="150" height="80" as="geometry"/>
                </mxCell>
                <mxCell id="reserve-book" value="Reserve Book" style="ellipse;whiteSpace=wrap;html=1;fillColor=#d5e8d4;strokeColor=#82b366;fontSize=12;fontStyle=1;" parent="1" vertex="1">
                    <mxGeometry x="1050" y="200" width="150" height="80" as="geometry"/>
                </mxCell>
                <mxCell id="register-account" value="Register&#xa;Account" style="ellipse;whiteSpace=wrap;html=1;fillColor=#d5e8d4;strokeColor=#82b366;fontSize=12;fontStyle=1;" parent="1" vertex="1">
                    <mxGeometry x="450" y="320" width="150" height="80" as="geometry"/>
                </mxCell>
                <mxCell id="login-system" value="Login to&#xa;System" style="ellipse;whiteSpace=wrap;html=1;fillColor=#d5e8d4;strokeColor=#82b366;fontSize=12;fontStyle=1;" parent="1" vertex="1">
                    <mxGeometry x="650" y="320" width="150" height="80" as="geometry"/>
                </mxCell>
                <mxCell id="manage-profile" value="Manage&#xa;Profile" style="ellipse;whiteSpace=wrap;html=1;fillColor=#d5e8d4;strokeColor=#82b366;fontSize=12;fontStyle=1;" parent="1" vertex="1">
                    <mxGeometry x="850" y="320" width="150" height="80" as="geometry"/>
                </mxCell>
                <mxCell id="view-borrowing-history" value="View Borrowing&#xa;History" style="ellipse;whiteSpace=wrap;html=1;fillColor=#d5e8d4;strokeColor=#82b366;fontSize=12;fontStyle=1;" parent="1" vertex="1">
                    <mxGeometry x="1050" y="320" width="150" height="80" as="geometry"/>
                </mxCell>
                <mxCell id="borrow-book" value="Borrow Book" style="ellipse;whiteSpace=wrap;html=1;fillColor=#dae8fc;strokeColor=#6c8ebf;fontSize=12;fontStyle=1;" parent="1" vertex="1">
                    <mxGeometry x="450" y="440" width="150" height="80" as="geometry"/>
                </mxCell>
                <mxCell id="return-book" value="Return Book" style="ellipse;whiteSpace=wrap;html=1;fillColor=#dae8fc;strokeColor=#6c8ebf;fontSize=12;fontStyle=1;" parent="1" vertex="1">
                    <mxGeometry x="650" y="440" width="150" height="80" as="geometry"/>
                </mxCell>
                <mxCell id="renew-book" value="Renew Book" style="ellipse;whiteSpace=wrap;html=1;fillColor=#dae8fc;strokeColor=#6c8ebf;fontSize=12;fontStyle=1;" parent="1" vertex="1">
                    <mxGeometry x="850" y="440" width="150" height="80" as="geometry"/>
                </mxCell>
                <mxCell id="calculate-fine" value="Calculate&#xa;Fine" style="ellipse;whiteSpace=wrap;html=1;fillColor=#dae8fc;strokeColor=#6c8ebf;fontSize=12;fontStyle=1;" parent="1" vertex="1">
                    <mxGeometry x="1050" y="440" width="150" height="80" as="geometry"/>
                </mxCell>
                <mxCell id="manage-books" value="Manage&#xa;Books" style="ellipse;whiteSpace=wrap;html=1;fillColor=#dae8fc;strokeColor=#6c8ebf;fontSize=12;fontStyle=1;" parent="1" vertex="1">
                    <mxGeometry x="450" y="560" width="150" height="80" as="geometry"/>
                </mxCell>
                <mxCell id="manage-members" value="Manage&#xa;Members" style="ellipse;whiteSpace=wrap;html=1;fillColor=#dae8fc;strokeColor=#6c8ebf;fontSize=12;fontStyle=1;" parent="1" vertex="1">
                    <mxGeometry x="650" y="560" width="150" height="80" as="geometry"/>
                </mxCell>
                <mxCell id="generate-reports" value="Generate&#xa;Reports" style="ellipse;whiteSpace=wrap;html=1;fillColor=#dae8fc;strokeColor=#6c8ebf;fontSize=12;fontStyle=1;" parent="1" vertex="1">
                    <mxGeometry x="850" y="560" width="150" height="80" as="geometry"/>
                </mxCell>
                <mxCell id="manage-reservations" value="Manage&#xa;Reservations" style="ellipse;whiteSpace=wrap;html=1;fillColor=#dae8fc;strokeColor=#6c8ebf;fontSize=12;fontStyle=1;" parent="1" vertex="1">
                    <mxGeometry x="1050" y="560" width="150" height="80" as="geometry"/>
                </mxCell>
                <mxCell id="backup-system" value="Backup&#xa;System" style="ellipse;whiteSpace=wrap;html=1;fillColor=#f8cecc;strokeColor=#b85450;fontSize=12;fontStyle=1;" parent="1" vertex="1">
                    <mxGeometry x="450" y="680" width="150" height="80" as="geometry"/>
                </mxCell>
                <mxCell id="manage-users" value="Manage System&#xa;Users" style="ellipse;whiteSpace=wrap;html=1;fillColor=#f8cecc;strokeColor=#b85450;fontSize=12;fontStyle=1;" parent="1" vertex="1">
                    <mxGeometry x="650" y="680" width="150" height="80" as="geometry"/>
                </mxCell>
                <mxCell id="system-maintenance" value="System&#xa;Maintenance" style="ellipse;whiteSpace=wrap;html=1;fillColor=#f8cecc;strokeColor=#b85450;fontSize=12;fontStyle=1;" parent="1" vertex="1">
                    <mxGeometry x="850" y="680" width="150" height="80" as="geometry"/>
                </mxCell>
                <mxCell id="configure-settings" value="Configure&#xa;Settings" style="ellipse;whiteSpace=wrap;html=1;fillColor=#f8cecc;strokeColor=#b85450;fontSize=12;fontStyle=1;" parent="1" vertex="1">
                    <mxGeometry x="1050" y="680" width="150" height="80" as="geometry"/>
                </mxCell>
                <mxCell id="send-notifications" value="Send&#xa;Notifications" style="ellipse;whiteSpace=wrap;html=1;fillColor=#fff2cc;strokeColor=#d6b656;fontSize=12;fontStyle=1;" parent="1" vertex="1">
                    <mxGeometry x="650" y="800" width="150" height="80" as="geometry"/>
                </mxCell>
                <mxCell id="validate-credentials" value="Validate&#xa;Credentials" style="ellipse;whiteSpace=wrap;html=1;fillColor=#fff2cc;strokeColor=#d6b656;fontSize=12;fontStyle=1;" parent="1" vertex="1">
                    <mxGeometry x="850" y="800" width="150" height="80" as="geometry"/>
                </mxCell>
                <mxCell id="store-data" value="Store Data" style="ellipse;whiteSpace=wrap;html=1;fillColor=#e1d5e7;strokeColor=#9673a6;fontSize=12;fontStyle=1;" parent="1" vertex="1">
                    <mxGeometry x="1250" y="320" width="150" height="80" as="geometry"/>
                </mxCell>
                <mxCell id="retrieve-data" value="Retrieve Data" style="ellipse;whiteSpace=wrap;html=1;fillColor=#e1d5e7;strokeColor=#9673a6;fontSize=12;fontStyle=1;" parent="1" vertex="1">
                    <mxGeometry x="1250" y="420" width="150" height="80" as="geometry"/>
                </mxCell>
                <mxCell id="member-search" value="" style="endArrow=none;html=1;rounded=0;strokeWidth=2;strokeColor=#82b366;exitX=1;exitY=0.3333333333333333;exitDx=0;exitDy=0;exitPerimeter=0;entryX=0;entryY=0.5;entryDx=0;entryDy=0;" parent="1" source="member-actor" target="search-books" edge="1">
                    <mxGeometry width="50" height="50" relative="1" as="geometry">
                        <mxPoint x="300" y="300" as="sourcePoint"/>
                        <mxPoint x="350" y="250" as="targetPoint"/>
                    </mxGeometry>
                </mxCell>
                <mxCell id="member-browse" value="" style="endArrow=none;html=1;rounded=0;strokeWidth=2;strokeColor=#82b366;exitX=1;exitY=0.3333333333333333;exitDx=0;exitDy=0;exitPerimeter=0;entryX=0;entryY=0.5;entryDx=0;entryDy=0;" parent="1" source="member-actor" target="browse-catalog" edge="1">
                    <mxGeometry width="50" height="50" relative="1" as="geometry">
                        <mxPoint x="300" y="300" as="sourcePoint"/>
                        <mxPoint x="350" y="250" as="targetPoint"/>
                    </mxGeometry>
                </mxCell>
                <mxCell id="member-view-details" value="" style="endArrow=none;html=1;rounded=0;strokeWidth=2;strokeColor=#82b366;exitX=1;exitY=0.3333333333333333;exitDx=0;exitDy=0;exitPerimeter=0;entryX=0;entryY=0.5;entryDx=0;entryDy=0;" parent="1" source="member-actor" target="view-book-details" edge="1">
                    <mxGeometry width="50" height="50" relative="1" as="geometry">
                        <mxPoint x="300" y="300" as="sourcePoint"/>
                        <mxPoint x="350" y="250" as="targetPoint"/>
                    </mxGeometry>
                </mxCell>
                <mxCell id="member-reserve" value="" style="endArrow=none;html=1;rounded=0;strokeWidth=2;strokeColor=#82b366;exitX=1;exitY=0.3333333333333333;exitDx=0;exitDy=0;exitPerimeter=0;entryX=0;entryY=0.5;entryDx=0;entryDy=0;" parent="1" source="member-actor" target="reserve-book" edge="1">
                    <mxGeometry width="50" height="50" relative="1" as="geometry">
                        <mxPoint x="300" y="300" as="sourcePoint"/>
                        <mxPoint x="350" y="250" as="targetPoint"/>
                    </mxGeometry>
                </mxCell>
                <mxCell id="member-register" value="" style="endArrow=none;html=1;rounded=0;strokeWidth=2;strokeColor=#82b366;exitX=1;exitY=0.3333333333333333;exitDx=0;exitDy=0;exitPerimeter=0;entryX=0;entryY=0.5;entryDx=0;entryDy=0;" parent="1" source="member-actor" target="register-account" edge="1">
                    <mxGeometry width="50" height="50" relative="1" as="geometry">
                        <mxPoint x="300" y="300" as="sourcePoint"/>
                        <mxPoint x="350" y="250" as="targetPoint"/>
                    </mxGeometry>
                </mxCell>
                <mxCell id="member-login" value="" style="endArrow=none;html=1;rounded=0;strokeWidth=2;strokeColor=#82b366;exitX=1;exitY=0.3333333333333333;exitDx=0;exitDy=0;exitPerimeter=0;entryX=0;entryY=0.5;entryDx=0;entryDy=0;" parent="1" source="member-actor" target="login-system" edge="1">
                    <mxGeometry width="50" height="50" relative="1" as="geometry">
                        <mxPoint x="300" y="300" as="sourcePoint"/>
                        <mxPoint x="350" y="250" as="targetPoint"/>
                    </mxGeometry>
                </mxCell>
                <mxCell id="member-profile" value="" style="endArrow=none;html=1;rounded=0;strokeWidth=2;strokeColor=#82b366;exitX=1;exitY=0.3333333333333333;exitDx=0;exitDy=0;exitPerimeter=0;entryX=0;entryY=0.5;entryDx=0;entryDy=0;" parent="1" source="member-actor" target="manage-profile" edge="1">
                    <mxGeometry width="50" height="50" relative="1" as="geometry">
                        <mxPoint x="300" y="300" as="sourcePoint"/>
                        <mxPoint x="350" y="250" as="targetPoint"/>
                    </mxGeometry>
                </mxCell>
                <mxCell id="member-history" value="" style="endArrow=none;html=1;rounded=0;strokeWidth=2;strokeColor=#82b366;exitX=1;exitY=0.3333333333333333;exitDx=0;exitDy=0;exitPerimeter=0;entryX=0;entryY=0.5;entryDx=0;entryDy=0;" parent="1" source="member-actor" target="view-borrowing-history" edge="1">
                    <mxGeometry width="50" height="50" relative="1" as="geometry">
                        <mxPoint x="300" y="300" as="sourcePoint"/>
                        <mxPoint x="350" y="250" as="targetPoint"/>
                    </mxGeometry>
                </mxCell>
                <mxCell id="librarian-borrow" value="" style="endArrow=none;html=1;rounded=0;strokeWidth=2;strokeColor=#6c8ebf;exitX=1;exitY=0.3333333333333333;exitDx=0;exitDy=0;exitPerimeter=0;entryX=0;entryY=0.5;entryDx=0;entryDy=0;" parent="1" source="librarian-actor" target="borrow-book" edge="1">
                    <mxGeometry width="50" height="50" relative="1" as="geometry">
                        <mxPoint x="300" y="500" as="sourcePoint"/>
                        <mxPoint x="350" y="450" as="targetPoint"/>
                    </mxGeometry>
                </mxCell>
                <mxCell id="librarian-return" value="" style="endArrow=none;html=1;rounded=0;strokeWidth=2;strokeColor=#6c8ebf;exitX=1;exitY=0.3333333333333333;exitDx=0;exitDy=0;exitPerimeter=0;entryX=0;entryY=0.5;entryDx=0;entryDy=0;" parent="1" source="librarian-actor" target="return-book" edge="1">
                    <mxGeometry width="50" height="50" relative="1" as="geometry">
                        <mxPoint x="300" y="500" as="sourcePoint"/>
                        <mxPoint x="350" y="450" as="targetPoint"/>
                    </mxGeometry>
                </mxCell>
                <mxCell id="librarian-renew" value="" style="endArrow=none;html=1;rounded=0;strokeWidth=2;strokeColor=#6c8ebf;exitX=1;exitY=0.3333333333333333;exitDx=0;exitDy=0;exitPerimeter=0;entryX=0;entryY=0.5;entryDx=0;entryDy=0;" parent="1" source="librarian-actor" target="renew-book" edge="1">
                    <mxGeometry width="50" height="50" relative="1" as="geometry">
                        <mxPoint x="300" y="500" as="sourcePoint"/>
                        <mxPoint x="350" y="450" as="targetPoint"/>
                    </mxGeometry>
                </mxCell>
                <mxCell id="librarian-fine" value="" style="endArrow=none;html=1;rounded=0;strokeWidth=2;strokeColor=#6c8ebf;exitX=1;exitY=0.3333333333333333;exitDx=0;exitDy=0;exitPerimeter=0;entryX=0;entryY=0.5;entryDx=0;entryDy=0;" parent="1" source="librarian-actor" target="calculate-fine" edge="1">
                    <mxGeometry width="50" height="50" relative="1" as="geometry">
                        <mxPoint x="300" y="500" as="sourcePoint"/>
                        <mxPoint x="350" y="450" as="targetPoint"/>
                    </mxGeometry>
                </mxCell>
                <mxCell id="librarian-manage-books" value="" style="endArrow=none;html=1;rounded=0;strokeWidth=2;strokeColor=#6c8ebf;exitX=1;exitY=0.3333333333333333;exitDx=0;exitDy=0;exitPerimeter=0;entryX=0;entryY=0.5;entryDx=0;entryDy=0;" parent="1" source="librarian-actor" target="manage-books" edge="1">
                    <mxGeometry width="50" height="50" relative="1" as="geometry">
                        <mxPoint x="300" y="500" as="sourcePoint"/>
                        <mxPoint x="350" y="450" as="targetPoint"/>
                    </mxGeometry>
                </mxCell>
                <mxCell id="librarian-manage-members" value="" style="endArrow=none;html=1;rounded=0;strokeWidth=2;strokeColor=#6c8ebf;exitX=1;exitY=0.3333333333333333;exitDx=0;exitDy=0;exitPerimeter=0;entryX=0;entryY=0.5;entryDx=0;entryDy=0;" parent="1" source="librarian-actor" target="manage-members" edge="1">
                    <mxGeometry width="50" height="50" relative="1" as="geometry">
                        <mxPoint x="300" y="500" as="sourcePoint"/>
                        <mxPoint x="350" y="450" as="targetPoint"/>
                    </mxGeometry>
                </mxCell>
                <mxCell id="librarian-reports" value="" style="endArrow=none;html=1;rounded=0;strokeWidth=2;strokeColor=#6c8ebf;exitX=1;exitY=0.3333333333333333;exitDx=0;exitDy=0;exitPerimeter=0;entryX=0;entryY=0.5;entryDx=0;entryDy=0;" parent="1" source="librarian-actor" target="generate-reports" edge="1">
                    <mxGeometry width="50" height="50" relative="1" as="geometry">
                        <mxPoint x="300" y="500" as="sourcePoint"/>
                        <mxPoint x="350" y="450" as="targetPoint"/>
                    </mxGeometry>
                </mxCell>
                <mxCell id="librarian-reservations" value="" style="endArrow=none;html=1;rounded=0;strokeWidth=2;strokeColor=#6c8ebf;exitX=1;exitY=0.3333333333333333;exitDx=0;exitDy=0;exitPerimeter=0;entryX=0;entryY=0.5;entryDx=0;entryDy=0;" parent="1" source="librarian-actor" target="manage-reservations" edge="1">
                    <mxGeometry width="50" height="50" relative="1" as="geometry">
                        <mxPoint x="300" y="500" as="sourcePoint"/>
                        <mxPoint x="350" y="450" as="targetPoint"/>
                    </mxGeometry>
                </mxCell>
                <mxCell id="admin-backup" value="" style="endArrow=none;html=1;rounded=0;strokeWidth=2;strokeColor=#b85450;exitX=1;exitY=0.3333333333333333;exitDx=0;exitDy=0;exitPerimeter=0;entryX=0;entryY=0.5;entryDx=0;entryDy=0;" parent="1" source="admin-actor" target="backup-system" edge="1">
                    <mxGeometry width="50" height="50" relative="1" as="geometry">
                        <mxPoint x="300" y="750" as="sourcePoint"/>
                        <mxPoint x="350" y="700" as="targetPoint"/>
                    </mxGeometry>
                </mxCell>
                <mxCell id="admin-users" value="" style="endArrow=none;html=1;rounded=0;strokeWidth=2;strokeColor=#b85450;exitX=1;exitY=0.3333333333333333;exitDx=0;exitDy=0;exitPerimeter=0;entryX=0;entryY=0.5;entryDx=0;entryDy=0;" parent="1" source="admin-actor" target="manage-users" edge="1">
                    <mxGeometry width="50" height="50" relative="1" as="geometry">
                        <mxPoint x="300" y="750" as="sourcePoint"/>
                        <mxPoint x="350" y="700" as="targetPoint"/>
                    </mxGeometry>
                </mxCell>
                <mxCell id="admin-maintenance" value="" style="endArrow=none;html=1;rounded=0;strokeWidth=2;strokeColor=#b85450;exitX=1;exitY=0.3333333333333333;exitDx=0;exitDy=0;exitPerimeter=0;entryX=0;entryY=0.5;entryDx=0;entryDy=0;" parent="1" source="admin-actor" target="system-maintenance" edge="1">
                    <mxGeometry width="50" height="50" relative="1" as="geometry">
                        <mxPoint x="300" y="750" as="sourcePoint"/>
                        <mxPoint x="350" y="700" as="targetPoint"/>
                    </mxGeometry>
                </mxCell>
                <mxCell id="admin-configure" value="" style="endArrow=none;html=1;rounded=0;strokeWidth=2;strokeColor=#b85450;exitX=1;exitY=0.3333333333333333;exitDx=0;exitDy=0;exitPerimeter=0;entryX=0;entryY=0.5;entryDx=0;entryDy=0;" parent="1" source="admin-actor" target="configure-settings" edge="1">
                    <mxGeometry width="50" height="50" relative="1" as="geometry">
                        <mxPoint x="300" y="750" as="sourcePoint"/>
                        <mxPoint x="350" y="700" as="targetPoint"/>
                    </mxGeometry>
                </mxCell>
                <mxCell id="database-store" value="" style="endArrow=none;html=1;rounded=0;strokeWidth=2;strokeColor=#9673a6;exitX=0;exitY=0.3333333333333333;exitDx=0;exitDy=0;exitPerimeter=0;entryX=1;entryY=0.5;entryDx=0;entryDy=0;" parent="1" source="database-actor" target="store-data" edge="1">
                    <mxGeometry width="50" height="50" relative="1" as="geometry">
                        <mxPoint x="1450" y="350" as="sourcePoint"/>
                        <mxPoint x="1400" y="300" as="targetPoint"/>
                    </mxGeometry>
                </mxCell>
                <mxCell id="database-retrieve" value="" style="endArrow=none;html=1;rounded=0;strokeWidth=2;strokeColor=#9673a6;exitX=0;exitY=0.3333333333333333;exitDx=0;exitDy=0;exitPerimeter=0;entryX=1;entryY=0.5;entryDx=0;entryDy=0;" parent="1" source="database-actor" target="retrieve-data" edge="1">
                    <mxGeometry width="50" height="50" relative="1" as="geometry">
                        <mxPoint x="1450" y="350" as="sourcePoint"/>
                        <mxPoint x="1400" y="300" as="targetPoint"/>
                    </mxGeometry>
                </mxCell>
                <mxCell id="email-notifications" value="" style="endArrow=none;html=1;rounded=0;strokeWidth=2;strokeColor=#d6b656;exitX=0;exitY=0.3333333333333333;exitDx=0;exitDy=0;exitPerimeter=0;entryX=1;entryY=0.5;entryDx=0;entryDy=0;" parent="1" source="email-actor" target="send-notifications" edge="1">
                    <mxGeometry width="50" height="50" relative="1" as="geometry">
                        <mxPoint x="1450" y="600" as="sourcePoint"/>
                        <mxPoint x="1400" y="550" as="targetPoint"/>
                    </mxGeometry>
                </mxCell>
                <mxCell id="borrow-include-validate" value="&lt;&lt;include&gt;&gt;" style="endArrow=open;endSize=12;dashed=1;html=1;rounded=0;strokeWidth=2;strokeColor=#d6b656;exitX=1;exitY=1;exitDx=0;exitDy=0;entryX=0;entryY=0;entryDx=0;entryDy=0;fontSize=11;fontStyle=1;" parent="1" source="borrow-book" target="validate-credentials" edge="1">
                    <mxGeometry width="160" relative="1" as="geometry">
                        <mxPoint x="600" y="520" as="sourcePoint"/>
                        <mxPoint x="850" y="800" as="targetPoint"/>
                    </mxGeometry>
                </mxCell>
                <mxCell id="reserve-include-validate" value="&lt;&lt;include&gt;&gt;" style="endArrow=open;endSize=12;dashed=1;html=1;rounded=0;strokeWidth=2;strokeColor=#d6b656;exitX=0.5;exitY=1;exitDx=0;exitDy=0;entryX=0.5;entryY=0;entryDx=0;entryDy=0;fontSize=11;fontStyle=1;" parent="1" source="reserve-book" target="validate-credentials" edge="1">
                    <mxGeometry width="160" relative="1" as="geometry">
                        <mxPoint x="1125" y="280" as="sourcePoint"/>
                        <mxPoint x="925" y="800" as="targetPoint"/>
                    </mxGeometry>
                </mxCell>
                <mxCell id="login-include-validate" value="&lt;&lt;include&gt;&gt;" style="endArrow=open;endSize=12;dashed=1;html=1;rounded=0;strokeWidth=2;strokeColor=#d6b656;exitX=0.5;exitY=1;exitDx=0;exitDy=0;entryX=0;entryY=0;entryDx=0;entryDy=0;fontSize=11;fontStyle=1;" parent="1" source="login-system" target="validate-credentials" edge="1">
                    <mxGeometry width="160" relative="1" as="geometry">
                        <mxPoint x="725" y="400" as="sourcePoint"/>
                        <mxPoint x="850" y="800" as="targetPoint"/>
                    </mxGeometry>
                </mxCell>
                <mxCell id="borrow-include-notify" value="&lt;&lt;include&gt;&gt;" style="endArrow=open;endSize=12;dashed=1;html=1;rounded=0;strokeWidth=2;strokeColor=#d6b656;exitX=0.5;exitY=1;exitDx=0;exitDy=0;entryX=0;entryY=0;entryDx=0;entryDy=0;fontSize=11;fontStyle=1;" parent="1" source="borrow-book" target="send-notifications" edge="1">
                    <mxGeometry width="160" relative="1" as="geometry">
                        <mxPoint x="525" y="520" as="sourcePoint"/>
                        <mxPoint x="650" y="800" as="targetPoint"/>
                    </mxGeometry>
                </mxCell>
                <mxCell id="return-include-notify" value="&lt;&lt;include&gt;&gt;" style="endArrow=open;endSize=12;dashed=1;html=1;rounded=0;strokeWidth=2;strokeColor=#d6b656;exitX=0.5;exitY=1;exitDx=0;exitDy=0;entryX=0.5;entryY=0;entryDx=0;entryDy=0;fontSize=11;fontStyle=1;" parent="1" source="return-book" target="send-notifications" edge="1">
                    <mxGeometry width="160" relative="1" as="geometry">
                        <mxPoint x="725" y="520" as="sourcePoint"/>
                        <mxPoint x="725" y="800" as="targetPoint"/>
                    </mxGeometry>
                </mxCell>
                <mxCell id="return-extend-fine" value="&lt;&lt;extend&gt;&gt;" style="endArrow=open;endSize=12;dashed=1;html=1;rounded=0;strokeWidth=2;strokeColor=#ff9999;exitX=1;exitY=0.5;exitDx=0;exitDy=0;entryX=0;entryY=0.5;entryDx=0;entryDy=0;fontSize=11;fontStyle=1;" parent="1" source="return-book" target="calculate-fine" edge="1">
                    <mxGeometry width="160" relative="1" as="geometry">
                        <mxPoint x="800" y="480" as="sourcePoint"/>
                        <mxPoint x="1050" y="480" as="targetPoint"/>
                    </mxGeometry>
                </mxCell>
                <mxCell id="store-extend-backup" value="&lt;&lt;extend&gt;&gt;" style="endArrow=open;endSize=12;dashed=1;html=1;rounded=0;strokeWidth=2;strokeColor=#ff9999;exitX=0;exitY=1;exitDx=0;exitDy=0;entryX=1;entryY=0;entryDx=0;entryDy=0;fontSize=11;fontStyle=1;" parent="1" source="store-data" target="backup-system" edge="1">
                    <mxGeometry width="160" relative="1" as="geometry">
                        <mxPoint x="1250" y="400" as="sourcePoint"/>
                        <mxPoint x="600" y="680" as="targetPoint"/>
                    </mxGeometry>
                </mxCell>
                <mxCell id="legend-box" value="" style="rounded=1;whiteSpace=wrap;html=1;fillColor=#f5f5f5;strokeColor=#666666;strokeWidth=2;" parent="1" vertex="1">
                    <mxGeometry x="50" y="1000" width="600" height="180" as="geometry"/>
                </mxCell>
                <mxCell id="legend-title" value="Legend - Library Management System Elements" style="text;html=1;strokeColor=none;fillColor=none;align=center;verticalAlign=middle;whiteSpace=wrap;rounded=0;fontSize=18;fontStyle=1;fontColor=#1f4e79;" parent="1" vertex="1">
                    <mxGeometry x="60" y="1010" width="580" height="30" as="geometry"/>
                </mxCell>
                <mxCell id="legend-member" value="Member&#xa;Use Cases" style="ellipse;whiteSpace=wrap;html=1;fillColor=#d5e8d4;strokeColor=#82b366;fontSize=10;" parent="1" vertex="1">
                    <mxGeometry x="70" y="1050" width="80" height="35" as="geometry"/>
                </mxCell>
                <mxCell id="legend-librarian" value="Librarian&#xa;Use Cases" style="ellipse;whiteSpace=wrap;html=1;fillColor=#dae8fc;strokeColor=#6c8ebf;fontSize=10;" parent="1" vertex="1">
                    <mxGeometry x="160" y="1050" width="80" height="35" as="geometry"/>
                </mxCell>
                <mxCell id="legend-admin" value="Admin&#xa;Use Cases" style="ellipse;whiteSpace=wrap;html=1;fillColor=#f8cecc;strokeColor=#b85450;fontSize=10;" parent="1" vertex="1">
                    <mxGeometry x="250" y="1050" width="80" height="35" as="geometry"/>
                </mxCell>
                <mxCell id="legend-shared" value="Shared&#xa;Services" style="ellipse;whiteSpace=wrap;html=1;fillColor=#fff2cc;strokeColor=#d6b656;fontSize=10;" parent="1" vertex="1">
                    <mxGeometry x="340" y="1050" width="80" height="35" as="geometry"/>
                </mxCell>
                <mxCell id="legend-external" value="External&#xa;Systems" style="ellipse;whiteSpace=wrap;html=1;fillColor=#e1d5e7;strokeColor=#9673a6;fontSize=10;" parent="1" vertex="1">
                    <mxGeometry x="430" y="1050" width="80" height="35" as="geometry"/>
                </mxCell>
                <mxCell id="legend-association-line" value="" style="endArrow=none;html=1;rounded=0;strokeWidth=3;strokeColor=#333333;" parent="1" edge="1">
                    <mxGeometry width="60" relative="1" as="geometry">
                        <mxPoint x="70" y="1105" as="sourcePoint"/>
                        <mxPoint x="130" y="1105" as="targetPoint"/>
                    </mxGeometry>
                </mxCell>
                <mxCell id="legend-association-text" value="Association: Actor directly uses Use Case" style="text;html=1;strokeColor=none;fillColor=none;align=left;verticalAlign=middle;whiteSpace=wrap;rounded=0;fontSize=11;" parent="1" vertex="1">
                    <mxGeometry x="140" y="1098" width="220" height="15" as="geometry"/>
                </mxCell>
                <mxCell id="legend-include-line" value="&lt;&lt;include&gt;&gt;" style="endArrow=open;endSize=10;dashed=1;html=1;rounded=0;strokeWidth=3;strokeColor=#d6b656;fontSize=10;fontStyle=1;" parent="1" edge="1">
                    <mxGeometry width="80" relative="1" as="geometry">
                        <mxPoint x="70" y="1125" as="sourcePoint"/>
                        <mxPoint x="130" y="1125" as="targetPoint"/>
                    </mxGeometry>
                </mxCell>
                <mxCell id="legend-include-text" value="Include: Mandatory sub-functionality (always required)" style="text;html=1;strokeColor=none;fillColor=none;align=left;verticalAlign=middle;whiteSpace=wrap;rounded=0;fontSize=11;" parent="1" vertex="1">
                    <mxGeometry x="140" y="1118" width="260" height="15" as="geometry"/>
                </mxCell>
                <mxCell id="legend-extend-line" value="&lt;&lt;extend&gt;&gt;" style="endArrow=open;endSize=10;dashed=1;html=1;rounded=0;strokeWidth=3;strokeColor=#ff9999;fontSize=10;fontStyle=1;" parent="1" edge="1">
                    <mxGeometry width="80" relative="1" as="geometry">
                        <mxPoint x="70" y="1145" as="sourcePoint"/>
                        <mxPoint x="130" y="1145" as="targetPoint"/>
                    </mxGeometry>
                </mxCell>
                <mxCell id="legend-extend-text" value="Extend: Optional additional functionality (conditional)" style="text;html=1;strokeColor=none;fillColor=none;align=left;verticalAlign=middle;whiteSpace=wrap;rounded=0;fontSize=11;" parent="1" vertex="1">
                    <mxGeometry x="140" y="1138" width="250" height="15" as="geometry"/>
                </mxCell>
                <mxCell id="descriptions-box" value="" style="rounded=1;whiteSpace=wrap;html=1;fillColor=#e6f3ff;strokeColor=#4472c4;strokeWidth=2;" parent="1" vertex="1">
                    <mxGeometry x="670" y="1000" width="470" height="230" as="geometry"/>
                </mxCell>
                <mxCell id="descriptions-title" value="Relationship Descriptions" style="text;html=1;strokeColor=none;fillColor=none;align=center;verticalAlign=middle;whiteSpace=wrap;rounded=0;fontSize=18;fontStyle=1;fontColor=#1f4e79;" parent="1" vertex="1">
                    <mxGeometry x="710" y="1010" width="430" height="30" as="geometry"/>
                </mxCell>
                <mxCell id="descriptions-text" value="• SOLID LINES (—): Direct Actor-Use Case relationships&#xa;  Example: Library Member —— Search Books&#xa;  Meaning: The actor can directly perform this use case&#xa;&#xa;• DASHED LINES WITH &lt;&lt;include&gt;&gt;: Mandatory dependencies&#xa;  Example: Borrow Book &lt;&lt;include&gt;&gt; Validate Credentials&#xa;  Meaning: Borrowing always requires credential validation&#xa;&#xa;• DASHED LINES WITH &lt;&lt;extend&gt;&gt;: Optional extensions&#xa;  Example: Return Book &lt;&lt;extend&gt;&gt; Calculate Fine&#xa;  Meaning: Fine calculation only happens if book is overdue" style="text;html=1;strokeColor=none;fillColor=none;align=left;verticalAlign=top;whiteSpace=wrap;rounded=0;fontSize=12;" parent="1" vertex="1">
                    <mxGeometry x="710" y="1050" width="430" height="125" as="geometry"/>
                </mxCell>
            </root>
        </mxGraphModel>
    </diagram>
</mxfile>